<?xml version="1.0" encoding="UTF-8" ?>
<!DOCTYPE svg PUBLIC "-//W3C//DTD SVG 1.1//EN" "http://www.w3.org/Graphics/SVG/1.1/DTD/svg11.dtd">
<svg width="646pt" height="297pt" viewBox="0 0 646 297" version="1.1" xmlns="http://www.w3.org/2000/svg">
<g id="#ffffffff">
<path fill="#ffffff" opacity="1.00" d=" M 37.62 38.60 C 45.82 29.49 57.79 23.93 70.04 23.50 C 81.35 22.99 93.29 25.10 102.70 31.71 C 101.31 38.48 100.37 45.35 98.57 52.03 C 91.29 47.32 82.81 43.97 73.99 44.62 C 66.44 45.34 58.63 48.88 54.67 55.63 C 49.53 64.20 49.42 76.18 56.02 84.01 C 61.21 90.29 69.93 92.33 77.74 91.52 C 82.96 91.10 87.74 88.86 92.62 87.17 C 91.64 93.93 90.39 100.64 89.18 107.36 C 89.05 109.39 86.70 109.64 85.21 110.29 C 73.90 113.74 61.27 113.53 50.35 108.81 C 41.67 105.05 34.45 98.02 30.58 89.37 C 23.46 72.85 26.26 52.55 37.62 38.60 Z" />
<path fill="#ffffff" opacity="1.00" d=" M 462.26 25.02 C 470.39 25.02 478.53 24.91 486.66 25.09 C 486.86 34.39 486.69 43.69 486.76 53.00 C 496.98 53.04 507.21 52.92 517.44 53.06 C 517.61 60.35 517.50 67.64 517.54 74.93 C 517.59 76.04 517.46 77.98 515.84 77.71 C 506.16 77.84 496.47 77.68 486.79 77.77 C 486.67 88.50 486.83 99.22 486.71 109.95 C 478.55 110.05 470.39 109.98 462.24 109.99 C 462.24 99.26 462.30 88.53 462.20 77.80 C 451.82 77.66 441.44 77.86 431.07 77.68 C 430.92 69.54 431.02 61.39 431.01 53.24 C 441.41 53.24 451.81 53.30 462.20 53.20 C 462.31 43.81 462.21 34.41 462.26 25.02 Z" />
<path fill="#ffffff" opacity="1.00" d=" M 136.34 26.99 C 145.58 26.24 154.99 26.83 164.30 26.73 C 170.30 54.43 176.20 82.16 182.00 109.91 C 174.70 110.09 167.40 110.00 160.10 109.96 C 159.08 105.16 157.68 100.44 156.80 95.61 C 148.19 95.43 139.58 95.59 130.97 95.51 C 129.61 95.70 127.48 95.05 126.83 96.70 C 124.48 100.97 122.67 105.51 120.54 109.89 C 112.08 110.06 103.62 110.10 95.16 109.86 C 96.38 106.66 98.02 103.66 99.54 100.60 C 111.84 76.08 123.86 51.42 136.34 26.99 M 135.35 77.18 C 141.10 77.31 146.85 77.25 152.60 77.22 C 150.73 68.58 148.82 59.94 146.84 51.31 C 142.84 59.86 139.16 68.55 135.35 77.18 Z" />
<path fill="#ffffff" opacity="1.00" d=" M 202.74 26.77 C 210.85 26.57 218.96 26.68 227.07 26.70 C 236.27 42.26 244.70 58.29 254.21 73.65 C 256.82 58.07 258.71 42.37 261.25 26.78 C 268.95 27.13 276.66 26.92 284.36 27.07 C 280.32 54.80 276.66 82.60 272.38 110.29 C 264.90 110.37 257.42 110.32 249.94 110.32 C 240.22 93.34 230.96 76.08 220.96 59.27 C 218.28 76.14 216.12 93.08 213.58 109.97 C 206.12 109.96 198.66 110.17 191.20 109.84 C 194.73 82.12 198.71 54.43 202.74 26.77 Z" />
<path fill="#ffffff" opacity="1.00" d=" M 323.91 26.68 C 333.13 26.74 342.36 26.49 351.58 26.81 C 357.41 54.64 363.13 82.49 368.93 110.32 C 361.68 110.27 354.42 110.46 347.17 110.26 L 346.53 109.68 C 345.27 104.98 344.54 100.16 343.30 95.45 C 333.70 95.23 324.09 95.32 314.49 95.39 C 311.72 100.19 310.32 105.92 306.91 110.24 C 298.67 110.38 290.41 110.47 282.18 110.14 C 288.35 97.10 294.94 84.25 301.55 71.42 C 308.99 56.50 316.46 41.59 323.91 26.68 M 322.62 77.21 C 328.37 77.29 334.13 77.23 339.88 77.25 C 338.13 68.42 336.16 59.63 334.24 50.83 C 330.34 59.61 326.37 68.37 322.62 77.21 Z" />
<path fill="#ffffff" opacity="1.00" d=" M 389.79 26.70 C 397.66 26.66 405.54 26.62 413.42 26.72 C 410.67 48.20 407.46 69.62 404.63 91.09 C 413.04 91.46 421.47 91.12 429.89 91.28 C 429.11 97.63 428.34 103.97 427.33 110.29 C 410.88 110.24 394.41 110.61 377.97 110.10 C 381.59 82.26 385.88 54.50 389.79 26.70 Z" />
<path fill="#ffffff" opacity="1.00" d=" M 219.42 147.61 C 224.79 146.86 230.92 146.93 235.22 150.74 C 234.43 157.11 234.75 163.53 234.78 169.93 C 230.68 168.69 226.01 166.48 221.90 168.88 C 218.35 170.85 218.47 175.36 217.92 178.85 C 223.53 179.06 229.13 178.99 234.74 179.04 C 234.71 183.21 234.71 187.39 234.87 191.57 C 238.75 187.82 242.56 183.77 247.58 181.55 C 258.38 176.66 272.39 177.61 281.10 186.21 C 281.19 184.40 281.27 182.60 281.35 180.80 C 289.04 180.67 296.73 180.70 304.43 180.76 C 304.51 202.43 304.59 224.10 304.39 245.77 C 296.71 245.71 289.03 245.72 281.35 245.76 C 281.27 243.76 281.19 241.76 281.10 239.77 C 277.89 242.44 274.67 245.31 270.62 246.61 C 265.15 248.37 259.20 248.35 253.62 247.16 C 242.26 244.62 233.29 235.01 229.97 224.06 C 227.43 215.78 228.36 206.90 231.02 198.78 C 226.76 198.72 222.51 198.73 218.26 198.80 C 218.26 214.27 218.33 229.75 218.23 245.23 C 210.34 245.31 202.46 245.30 194.57 245.24 C 194.45 229.78 194.49 214.33 194.55 198.88 C 191.71 198.78 188.87 198.73 186.02 198.69 C 185.98 192.14 185.99 185.59 186.00 179.04 C 188.87 179.00 191.75 178.98 194.62 178.93 C 194.77 174.87 194.69 170.72 195.79 166.76 C 197.30 161.61 201.02 157.49 204.97 154.02 C 209.33 151.01 214.09 148.34 219.42 147.61 M 262.40 199.41 C 256.51 201.56 252.11 207.65 252.70 214.02 C 252.89 221.40 259.58 227.89 266.98 227.78 C 275.30 228.36 282.82 220.36 281.83 212.09 C 281.46 202.85 271.02 196.04 262.40 199.41 Z" />
<path fill="#ffffff" opacity="1.00" d=" M 440.43 148.69 C 448.42 146.04 457.72 152.47 457.53 161.00 C 457.93 168.64 450.46 175.06 443.00 174.11 C 435.84 173.60 430.02 166.37 431.42 159.25 C 432.07 154.41 435.75 150.09 440.43 148.69 Z" />
<path fill="#ffffff" opacity="1.00" d=" M 468.01 150.01 C 476.00 149.99 484.00 149.99 491.99 150.01 C 492.00 155.00 492.00 160.00 492.01 164.99 C 499.49 165.04 506.98 164.86 514.46 165.15 C 519.99 176.19 525.89 187.03 531.54 198.01 C 537.37 187.16 542.91 176.14 548.46 165.14 C 557.42 164.87 566.39 164.99 575.35 165.05 C 558.36 197.06 540.96 228.85 523.85 260.80 C 523.24 261.87 522.63 262.94 522.02 264.02 C 513.29 263.92 504.56 264.19 495.84 263.80 C 502.70 251.27 509.29 238.60 516.22 226.11 C 517.02 224.53 517.97 222.97 518.30 221.21 C 517.60 218.96 516.29 216.97 515.16 214.93 C 507.36 201.52 500.09 187.81 492.15 174.49 C 491.80 198.65 492.11 222.83 491.99 246.99 C 484.00 247.01 476.00 247.01 468.01 246.99 C 467.99 214.66 467.99 182.34 468.01 150.01 Z" />
<path fill="#ffffff" opacity="1.00" d=" M 351.52 180.46 C 357.81 179.51 364.63 179.58 370.41 182.57 C 374.30 184.55 377.10 188.00 379.89 191.25 C 383.49 186.68 387.91 182.40 393.69 180.88 C 402.37 178.30 412.88 179.94 419.18 186.83 C 423.31 191.48 424.01 198.03 424.02 203.99 C 423.96 217.92 424.07 231.84 423.95 245.76 C 416.24 245.71 408.52 245.72 400.81 245.75 C 400.63 234.15 400.75 222.55 400.75 210.94 C 400.88 207.02 400.08 202.68 396.96 200.00 C 393.29 196.75 387.28 197.55 384.02 201.01 C 380.98 203.77 380.48 208.13 380.48 212.00 C 380.55 223.24 380.42 234.49 380.57 245.73 C 372.80 245.74 365.03 245.72 357.26 245.74 C 357.19 233.49 357.44 221.22 357.15 208.97 C 357.29 203.94 354.27 198.52 349.01 197.58 C 342.82 196.34 337.13 201.90 337.04 207.97 C 336.33 220.53 336.91 233.15 336.74 245.74 C 329.03 245.74 321.33 245.68 313.62 245.79 C 313.39 224.19 313.50 202.59 313.57 181.00 C 321.28 181.00 329.00 180.96 336.72 181.03 C 336.74 183.41 336.77 185.79 336.85 188.18 C 341.17 184.70 345.90 181.36 351.52 180.46 Z" />
<path fill="#ffffff" opacity="1.00" d=" M 432.80 181.25 C 440.52 181.28 448.24 181.29 455.95 181.23 C 456.06 202.90 455.99 224.57 455.99 246.24 C 448.25 246.29 440.51 246.31 432.77 246.23 C 432.72 224.57 432.65 202.91 432.80 181.25 Z" />
</g>
<g id="#000000ff">
<path fill="#000000" opacity="1.00" d=" M 4.00 4.00 C 182.67 4.00 361.33 4.00 540.00 4.00 C 540.00 44.17 540.00 84.33 540.00 124.50 C 540.01 129.07 539.95 133.64 540.03 138.22 L 540.04 138.83 C 483.13 139.32 426.21 138.79 369.29 139.09 C 284.13 138.89 198.97 139.05 113.81 139.01 C 77.21 138.99 40.60 139.01 4.00 139.00 C 4.00 94.00 4.00 49.00 4.00 4.00 M 37.62 38.60 C 26.26 52.55 23.46 72.85 30.58 89.37 C 34.45 98.02 41.67 105.05 50.35 108.81 C 61.27 113.53 73.90 113.74 85.21 110.29 C 86.70 109.64 89.05 109.39 89.18 107.36 C 90.39 100.64 91.64 93.93 92.62 87.17 C 87.74 88.86 82.96 91.10 77.74 91.52 C 69.93 92.33 61.21 90.29 56.02 84.01 C 49.42 76.18 49.53 64.20 54.67 55.63 C 58.63 48.88 66.44 45.34 73.99 44.62 C 82.81 43.97 91.29 47.32 98.57 52.03 C 100.37 45.35 101.31 38.48 102.70 31.71 C 93.29 25.10 81.35 22.99 70.04 23.50 C 57.79 23.93 45.82 29.49 37.62 38.60 M 462.26 25.02 C 462.21 34.41 462.31 43.81 462.20 53.20 C 451.81 53.30 441.41 53.24 431.01 53.24 C 431.02 61.39 430.92 69.54 431.07 77.68 C 441.44 77.86 451.82 77.66 462.20 77.80 C 462.30 88.53 462.24 99.26 462.24 109.99 C 470.39 109.98 478.55 110.05 486.71 109.95 C 486.83 99.22 486.67 88.50 486.79 77.77 C 496.47 77.68 506.16 77.84 515.84 77.71 C 517.46 77.98 517.59 76.04 517.54 74.93 C 517.50 67.64 517.61 60.35 517.44 53.06 C 507.21 52.92 496.98 53.04 486.76 53.00 C 486.69 43.69 486.86 34.39 486.66 25.09 C 478.53 24.91 470.39 25.02 462.26 25.02 M 136.34 26.99 C 123.86 51.42 111.84 76.08 99.54 100.60 C 98.02 103.66 96.38 106.66 95.16 109.86 C 103.62 110.10 112.08 110.06 120.54 109.89 C 122.67 105.51 124.48 100.97 126.83 96.70 C 127.48 95.05 129.61 95.70 130.97 95.51 C 139.58 95.59 148.19 95.43 156.80 95.61 C 157.68 100.44 159.08 105.16 160.10 109.96 C 167.40 110.00 174.70 110.09 182.00 109.91 C 176.20 82.16 170.30 54.43 164.30 26.73 C 154.99 26.83 145.58 26.24 136.34 26.99 M 202.74 26.77 C 198.71 54.43 194.73 82.12 191.20 109.84 C 198.66 110.17 206.12 109.96 213.58 109.97 C 216.12 93.08 218.28 76.14 220.96 59.27 C 230.96 76.08 240.22 93.34 249.94 110.32 C 257.42 110.32 264.90 110.37 272.38 110.29 C 276.66 82.60 280.32 54.80 284.36 27.07 C 276.66 26.92 268.95 27.13 261.25 26.78 C 258.71 42.37 256.82 58.07 254.21 73.65 C 244.70 58.29 236.27 42.26 227.07 26.70 C 218.96 26.68 210.85 26.57 202.74 26.77 M 323.91 26.68 C 316.46 41.59 308.99 56.50 301.55 71.42 C 294.94 84.25 288.35 97.10 282.18 110.14 C 290.41 110.47 298.67 110.38 306.91 110.24 C 310.32 105.92 311.72 100.19 314.49 95.39 C 324.09 95.32 333.70 95.23 343.30 95.45 C 344.54 100.16 345.27 104.98 346.53 109.68 L 347.17 110.26 C 354.42 110.46 361.68 110.27 368.93 110.32 C 363.13 82.49 357.41 54.64 351.58 26.81 C 342.36 26.49 333.13 26.74 323.91 26.68 M 389.79 26.70 C 385.88 54.50 381.59 82.26 377.97 110.10 C 394.41 110.61 410.88 110.24 427.33 110.29 C 428.34 103.97 429.11 97.63 429.89 91.28 C 421.47 91.12 413.04 91.46 404.63 91.09 C 407.46 69.62 410.67 48.20 413.42 26.72 C 405.54 26.62 397.66 26.66 389.79 26.70 Z" />
<path fill="#000000" opacity="1.00" d=" M 322.62 77.21 C 326.37 68.37 330.34 59.61 334.24 50.83 C 336.16 59.63 338.13 68.42 339.88 77.25 C 334.13 77.23 328.37 77.29 322.62 77.21 Z" />
<path fill="#000000" opacity="1.00" d=" M 135.35 77.18 C 139.16 68.55 142.84 59.86 146.84 51.31 C 148.82 59.94 150.73 68.58 152.60 77.22 C 146.85 77.25 141.10 77.31 135.35 77.18 Z" />
</g>
<g id="#fbae16ff">
<path fill="#fbae16" opacity="1.00" d=" M 540.00 124.50 C 569.02 122.48 597.98 119.47 626.98 117.12 C 630.62 161.73 634.96 206.29 638.46 250.91 C 628.53 251.53 618.63 252.64 608.72 253.40 C 608.34 253.24 607.59 252.93 607.21 252.77 C 606.00 250.72 606.69 248.25 606.56 246.00 C 606.58 210.15 606.59 174.30 606.55 138.45 C 584.38 138.24 562.19 138.74 540.03 138.22 C 539.95 133.64 540.01 129.07 540.00 124.50 Z" />
<path fill="#fbae16" opacity="1.00" d=" M 369.29 139.09 C 426.21 138.79 483.13 139.32 540.04 138.83 C 562.14 138.29 584.27 138.66 606.38 138.62 C 606.42 176.80 606.53 214.99 606.33 253.17 C 605.70 253.24 604.44 253.38 603.81 253.45 C 595.61 254.88 587.27 255.20 579.00 256.01 C 560.62 257.62 542.24 259.29 523.85 260.80 C 540.96 228.85 558.36 197.06 575.35 165.05 C 566.39 164.99 557.42 164.87 548.46 165.14 C 542.91 176.14 537.37 187.16 531.54 198.01 C 525.89 187.03 519.99 176.19 514.46 165.15 C 506.98 164.86 499.49 165.04 492.01 164.99 C 492.00 160.00 492.00 155.00 491.99 150.01 C 484.00 149.99 476.00 149.99 468.01 150.01 C 467.99 182.34 467.99 214.66 468.01 246.99 C 476.00 247.01 484.00 247.01 491.99 246.99 C 492.11 222.83 491.80 198.65 492.15 174.49 C 500.09 187.81 507.36 201.52 515.16 214.93 C 516.29 216.97 517.60 218.96 518.30 221.21 C 517.97 222.97 517.02 224.53 516.22 226.11 C 509.29 238.60 502.70 251.27 495.84 263.80 C 489.21 263.51 482.64 264.50 476.06 265.06 C 455.27 266.81 434.49 268.69 413.71 270.40 C 410.26 270.69 406.87 271.45 403.51 272.23 C 397.44 273.02 391.27 272.27 385.17 272.93 C 313.07 279.33 240.96 285.54 168.85 291.89 C 161.72 292.58 154.57 293.26 147.40 292.97 C 146.82 286.02 146.31 279.07 145.55 272.15 C 143.17 243.09 140.44 214.06 138.02 185.01 C 137.37 176.72 136.22 168.46 136.13 160.14 C 159.05 157.89 182.03 156.10 204.97 154.02 C 201.02 157.49 197.30 161.61 195.79 166.76 C 194.69 170.72 194.77 174.87 194.62 178.93 C 191.75 178.98 188.87 179.00 186.00 179.04 C 185.99 185.59 185.98 192.14 186.02 198.69 C 188.87 198.73 191.71 198.78 194.55 198.88 C 194.49 214.33 194.45 229.78 194.57 245.24 C 202.46 245.30 210.34 245.31 218.23 245.23 C 218.33 229.75 218.26 214.27 218.26 198.80 C 222.51 198.73 226.76 198.72 231.02 198.78 C 228.36 206.90 227.43 215.78 229.97 224.06 C 233.29 235.01 242.26 244.62 253.62 247.16 C 259.20 248.35 265.15 248.37 270.62 246.61 C 274.67 245.31 277.89 242.44 281.10 239.77 C 281.19 241.76 281.27 243.76 281.35 245.76 C 289.03 245.72 296.71 245.71 304.39 245.77 C 304.59 224.10 304.51 202.43 304.43 180.76 C 296.73 180.70 289.04 180.67 281.35 180.80 C 281.27 182.60 281.19 184.40 281.10 186.21 C 272.39 177.61 258.38 176.66 247.58 181.55 C 242.56 183.77 238.75 187.82 234.87 191.57 C 234.71 187.39 234.71 183.21 234.74 179.04 C 229.13 178.99 223.53 179.06 217.92 178.85 C 218.47 175.36 218.35 170.85 221.90 168.88 C 226.01 166.48 230.68 168.69 234.78 169.93 C 234.75 163.53 234.43 157.11 235.22 150.74 C 241.70 151.13 248.16 150.24 254.61 149.69 C 289.45 146.54 324.32 143.66 359.16 140.49 C 362.55 140.16 365.91 139.55 369.29 139.09 M 440.43 148.69 C 435.75 150.09 432.07 154.41 431.42 159.25 C 430.02 166.37 435.84 173.60 443.00 174.11 C 450.46 175.06 457.93 168.64 457.53 161.00 C 457.72 152.47 448.42 146.04 440.43 148.69 M 351.52 180.46 C 345.90 181.36 341.17 184.70 336.85 188.18 C 336.77 185.79 336.74 183.41 336.72 181.03 C 329.00 180.96 321.28 181.00 313.57 181.00 C 313.50 202.59 313.39 224.19 313.62 245.79 C 321.33 245.68 329.03 245.74 336.74 245.74 C 336.91 233.15 336.33 220.53 337.04 207.97 C 337.13 201.90 342.82 196.34 349.01 197.58 C 354.27 198.52 357.29 203.94 357.15 208.97 C 357.44 221.22 357.19 233.49 357.26 245.74 C 365.03 245.72 372.80 245.74 380.57 245.73 C 380.42 234.49 380.55 223.24 380.48 212.00 C 380.48 208.13 380.98 203.77 384.02 201.01 C 387.28 197.55 393.29 196.75 396.96 200.00 C 400.08 202.68 400.88 207.02 400.75 210.94 C 400.75 222.55 400.63 234.15 400.81 245.75 C 408.52 245.72 416.24 245.71 423.95 245.76 C 424.07 231.84 423.96 217.92 424.02 203.99 C 424.01 198.03 423.31 191.48 419.18 186.83 C 412.88 179.94 402.37 178.30 393.69 180.88 C 387.91 182.40 383.49 186.68 379.89 191.25 C 377.10 188.00 374.30 184.55 370.41 182.57 C 364.63 179.58 357.81 179.51 351.52 180.46 M 432.80 181.25 C 432.65 202.91 432.72 224.57 432.77 246.23 C 440.51 246.31 448.25 246.29 455.99 246.24 C 455.99 224.57 456.06 202.90 455.95 181.23 C 448.24 181.29 440.52 181.28 432.80 181.25 Z" />
<path fill="#fbae16" opacity="1.00" d=" M 262.40 199.41 C 271.02 196.04 281.46 202.85 281.83 212.09 C 282.82 220.36 275.30 228.36 266.98 227.78 C 259.58 227.89 252.89 221.40 252.70 214.02 C 252.11 207.65 256.51 201.56 262.40 199.41 Z" />
</g>
<g id="#f58220ff">
<path fill="#f58220" opacity="1.00" d=" M 113.81 139.01 C 198.97 139.05 284.13 138.89 369.29 139.09 C 365.91 139.55 362.55 140.16 359.16 140.49 C 324.32 143.66 289.45 146.54 254.61 149.69 C 248.16 150.24 241.70 151.13 235.22 150.74 C 230.92 146.93 224.79 146.86 219.42 147.61 C 214.09 148.34 209.33 151.01 204.97 154.02 C 182.03 156.10 159.05 157.89 136.13 160.14 C 136.22 168.46 137.37 176.72 138.02 185.01 C 140.44 214.06 143.17 243.09 145.55 272.15 C 134.98 272.99 124.34 272.39 113.74 272.48 C 113.73 227.99 113.59 183.50 113.81 139.01 Z" />
<path fill="#f58220" opacity="1.00" d=" M 579.00 256.01 C 587.27 255.20 595.61 254.88 603.81 253.45 C 604.29 253.64 605.27 254.02 605.76 254.21 C 606.00 254.59 606.49 255.34 606.74 255.72 C 606.85 261.31 606.76 266.91 606.69 272.51 C 550.12 272.58 493.56 272.52 437.00 272.54 C 425.84 272.36 414.66 272.92 403.51 272.23 C 406.87 271.45 410.26 270.69 413.71 270.40 C 434.49 268.69 455.27 266.81 476.06 265.06 C 482.64 264.50 489.21 263.51 495.84 263.80 C 504.56 264.19 513.29 263.92 522.02 264.02 C 522.63 262.94 523.24 261.87 523.85 260.80 C 542.24 259.29 560.62 257.62 579.00 256.01 Z" />
</g>
</svg>
